{"title":"The Hunger Games DVDSRC.AC3.TOTAL","uid":7138194,"size":840580469,"categoryP":"video","categoryS":"movies_dvdr","magnet":"?xt=urn:btih:d879c63705e239826f6bc3a6ee7d302a421c0848&amp;dn=The+Hunger+Games+DVDSRC.AC3.TOTAL&amp;tr=udp%3A%2F%2Ftracker.openbittorrent.com%3A80&amp;tr=udp%3A%2F%2Fopen.demonii.com%3A1337&amp;tr=udp%3A%2F%2Ftracker.coppersurfer.tk%3A6969&amp;tr=udp%3A%2F%2Fexodus.desync.com%3A6969","seeders":0,"leechers":0,"uploader":"olandweb","files":-1,"time":1332921106,"description":"\n\n\n\n\nIMDb: http://www.imdb.com/title/tt1392170/\n------------------------------------------\n\n\n\nThe Hunger Games DVDSRC.AC3.TOTAL\n----------------------------------------------\n\n\nPlot:\n----\nSet in a future where the Capitol selects a boy and girl from\nthe twelve districts to fight to the death on live television,\nKatniss Everdeen volunteers to take her younger sister's place\nfor the latest match.\n--------------------\n\nScreenshots:\n-----------\n &lt;a href=&quot;\nhttp://imageshack.us/photo/my-images/201/81403308.jpg/&quot; rel=&quot;nofollow&quot; target=&quot;_NEW&quot;&gt;\nhttp://imageshack.us/photo/my-images/201/81403308.jpg/&lt;/a&gt; &lt;a href=&quot;\nhttp://imageshack.us/photo/my-images/193/10684415.jpg/&quot; rel=&quot;nofollow&quot; target=&quot;_NEW&quot;&gt;\nhttp://imageshack.us/photo/my-images/193/10684415.jpg/&lt;/a&gt; &lt;a href=&quot;\nhttp://imageshack.us/photo/my-images/28/17490449.jpg/&quot; rel=&quot;nofollow&quot; target=&quot;_NEW&quot;&gt;\nhttp://imageshack.us/photo/my-images/28/17490449.jpg/&lt;/a&gt; &lt;a href=&quot;\nhttp://imageshack.us/photo/my-images/38/90669641.jpg/&quot; rel=&quot;nofollow&quot; target=&quot;_NEW&quot;&gt;\nhttp://imageshack.us/photo/my-images/38/90669641.jpg/&lt;/a&gt; &lt;a href=&quot;\nhttp://imageshack.us/photo/my-images/856/92629209.jpg/&quot; rel=&quot;nofollow&quot; target=&quot;_NEW&quot;&gt;\nhttp://imageshack.us/photo/my-images/856/92629209.jpg/&lt;/a&gt; &lt;a href=&quot;\nhttp://imageshack.us/photo/my-images/69/85389923.jpg/&quot; rel=&quot;nofollow&quot; target=&quot;_NEW&quot;&gt;\nhttp://imageshack.us/photo/my-images/69/85389923.jpg/&lt;/a&gt; &lt;a href=&quot;\nhttp://imageshack.us/photo/my-images/685/67379728.jpg/&quot; rel=&quot;nofollow&quot; target=&quot;_NEW&quot;&gt;\nhttp://imageshack.us/photo/my-images/685/67379728.jpg/&lt;/a&gt; &lt;a href=&quot;\nhttp://imageshack.us/photo/my-images/11/48038335.jpg/&quot; rel=&quot;nofollow&quot; target=&quot;_NEW&quot;&gt;\nhttp://imageshack.us/photo/my-images/11/48038335.jpg/&lt;/a&gt; &lt;a href=&quot;\nhttp://imageshack.us/photo/my-images/689/20972444.jpg/&quot; rel=&quot;nofollow&quot; target=&quot;_NEW&quot;&gt;\nhttp://imageshack.us/photo/my-images/689/20972444.jpg/&lt;/a&gt; &lt;a href=&quot;\nhttp://imageshack.us/photo/my-images/692/38796917.jpg/&quot; rel=&quot;nofollow&quot; target=&quot;_NEW&quot;&gt;\nhttp://imageshack.us/photo/my-images/692/38796917.jpg/&lt;/a&gt;\n\n\nDetails:\n-------\nVideo\nID                               : 0\nFormat                           : MPEG-4 Visual\nFormat profile                   : AdvancedSimple@L5\nFormat settings, BVOP            : Yes\nFormat settings, QPel            : No\nFormat settings, GMC             : No warppoints\nFormat settings, Matrix          : Custom\nCodec ID                         : XVID\nCodec ID/Hint                    : XviD\nDuration                         : 2h 22mn\nBit rate                         : 1 625 Kbps\nWidth                            : 720 pixels\nHeight                           : 304 pixels\nDisplay aspect ratio             : 2.35:1\nFrame rate                       : 23.976 fps\nResolution                       : 24 bits\nColorimetry                      : 4:2:0\nScan type                        : Progressive\nBits/(Pixel*Frame)               : 0.310\nStream size                      : 691 MiB (99%)\nWriting library                  : XviD 58\nAudio\nID                               : 1\nFormat                           : AC-3\nFormat/Info                      : Audio Coding 3\nCodec ID                         : 2000\nDuration                         : 2h 22mn\nBit rate mode                    : Constant\nBit rate                         : 192 Kbps\nChannel(s)                       : 2 channels\nChannel positions                : L R\nSampling rate                    : 48.0 KHz\nStream size                      : 147 MiB (11%)\nAlignment                        : Aligned on interleaves\nInterleave, duration             : 64 ms (1.53 video frames)\nInterleave, preload duration     : 192 ms\n-----------------------------------------\n","torrent":{"xt":"urn:btih:d879c63705e239826f6bc3a6ee7d302a421c0848","amp;dn":"The+Hunger+Games+DVDSRC.AC3.TOTAL","amp;tr":["udp%3A%2F%2Ftracker.openbittorrent.com%3A80","udp%3A%2F%2Fopen.demonii.com%3A1337","udp%3A%2F%2Ftracker.coppersurfer.tk%3A6969","udp%3A%2F%2Fexodus.desync.com%3A6969"],"infoHash":"d879c63705e239826f6bc3a6ee7d302a421c0848","infoHashBuffer":{"type":"Buffer","data":[216,121,198,55,5,226,57,130,111,107,195,166,238,125,48,42,66,28,8,72]},"announce":[],"urlList":[]}}